<svg width="101" height="76" viewBox="0 0 101 76" fill="none" xmlns="http://www.w3.org/2000/svg">
<path d="M36.2874 52.8014L44.6909 44.4313C54.8822 34.2805 54.8822 17.7634 44.6909 7.61264C34.4996 -2.53812 17.9144 -2.53812 7.72421 7.61264C5.29644 10.0299 3.37059 12.8998 2.05664 16.0585C0.742694 19.2173 0.0664063 22.6029 0.0664062 26.022C0.0664063 29.4411 0.742694 32.8267 2.05664 35.9854C3.37059 39.1441 5.29644 42.014 7.72421 44.4313L16.1246 52.8014L4.03932 64.8365C3.75361 65.1211 3.59311 65.5071 3.59311 65.9096C3.59311 66.3121 3.75361 66.6981 4.03932 66.9827L8.01761 70.9452C8.02121 70.9503 8.02507 70.9552 8.02918 70.9598L11.9654 74.8773C12.2513 75.1616 12.6388 75.3213 13.0428 75.3213C13.4468 75.3213 13.8343 75.1616 14.1202 74.8773L26.2076 62.8464L38.2939 74.8804C38.5799 75.1648 38.9676 75.3245 39.3718 75.3245C39.776 75.3245 40.1636 75.1648 40.4497 74.8804L44.3754 70.9682H44.3828V70.9609L48.3684 66.9911C48.6541 66.7065 48.8146 66.3205 48.8146 65.918C48.8146 65.5155 48.6541 65.1295 48.3684 64.8449L36.2874 52.8014ZM27.2834 45.9825L36.768 36.5378C38.1572 35.1587 39.2588 33.5195 40.0094 31.7147C40.76 29.9099 41.1448 27.975 41.1417 26.0214C41.1417 17.821 34.4439 11.1478 26.2086 11.1478C23.2558 11.1486 20.3696 12.0212 17.9147 13.6555C15.4597 15.2898 13.5463 17.6122 12.4163 20.3294C11.2863 23.0465 10.9904 26.0364 11.5661 28.921C12.1417 31.8056 13.563 34.4554 15.6503 36.5357L24.0538 44.9058L22.2303 46.7231L13.831 38.3435C7.007 31.5519 7.007 20.492 13.8278 13.6951C15.4531 12.0756 17.3828 10.7908 19.5066 9.9143C21.6305 9.03776 23.907 8.5866 26.206 8.5866C28.505 8.5866 30.7814 9.03776 32.9053 9.9143C35.0292 10.7908 36.9589 12.0756 38.5841 13.6951C45.4081 20.492 45.4081 31.5519 38.5841 38.3498L9.11025 67.74L7.27096 65.9122L27.2834 45.9825ZM26.2055 42.7627L17.8019 34.3926C16.137 32.7366 15.0026 30.626 14.5424 28.3277C14.0821 26.0295 14.3167 23.6469 15.2163 21.4814C16.1159 19.3159 17.6403 17.4649 19.5964 16.1626C21.5525 14.8602 23.8526 14.1651 26.2055 14.1651C28.5583 14.1651 30.8584 14.8602 32.8145 16.1626C34.7706 17.4649 36.2949 19.3159 37.1946 21.4814C38.0942 23.6469 38.3288 26.0295 37.8685 28.3277C37.4083 30.626 36.2739 32.7366 34.609 34.3926L26.2055 42.7627ZM13.0423 71.6616L11.2545 69.8873L40.7336 40.496C48.746 32.5145 48.746 19.5294 40.7336 11.5489C38.8255 9.64744 36.5599 8.13904 34.0663 7.10991C31.5727 6.08078 28.8999 5.55109 26.2007 5.55109C23.5015 5.55109 20.8288 6.08078 18.3352 7.10991C15.8416 8.13904 13.576 9.64744 11.6678 11.5489C3.65547 19.5294 3.65547 32.5145 11.6678 40.495L20.0682 48.8745L18.2752 50.6552L9.87898 42.2851C7.73428 40.1496 6.03297 37.6143 4.87222 34.8238C3.71147 32.0333 3.11404 29.0424 3.11404 26.022C3.11404 23.0015 3.71147 20.0106 4.87222 17.2201C6.03297 14.4296 7.73428 11.8943 9.87898 9.75885C18.8809 0.792748 33.5311 0.792748 42.5361 9.75885C51.5412 18.725 51.5391 33.3179 42.5361 42.2851L25.1317 59.6202L13.0423 71.6616ZM39.3718 71.6616L28.3623 60.6949L30.1501 58.9143L41.1511 69.8883L39.3718 71.6616ZM43.3059 67.7431L32.3017 56.7712L34.1326 54.9476L45.141 65.9133L43.3059 67.7431Z" fill="white"/>
<path d="M69.2754 17.9563V19.4374H67.2216L66.9177 21.8528H68.7938V23.3349H66.7315L66.2331 27.3581L64.7461 27.1644L65.2277 23.3349H62.7175L62.2159 27.3581L60.712 27.1644L61.1937 23.3004H59.2608V21.8528H61.3988L61.7037 19.4374H59.7509V17.9563H61.8899L62.3547 14.1855L63.8333 14.3793L63.3853 17.9574H65.8787L66.3519 14.1866L67.8305 14.3803L67.3825 17.9584L69.2754 17.9563ZM65.6925 19.4374H63.2076L62.9036 21.8528H65.4054L65.6925 19.4374ZM68.5256 35.5188C68.5256 40.3967 66.2415 42.2224 63.9395 42.2224C61.6375 42.2224 59.3534 40.3946 59.3534 35.5188C59.3534 30.6429 61.6375 28.8151 63.9395 28.8151C66.2415 28.8151 68.5256 30.6398 68.5256 35.5188ZM63.9395 39.8457C65.6526 39.8457 65.7746 36.5526 65.7746 35.5188C65.7746 34.3666 65.6526 31.1918 63.9395 31.1918C62.2264 31.1918 62.1107 34.3634 62.1107 35.5188C62.1107 36.5557 62.2295 39.8457 63.9426 39.8457H63.9395ZM69.8465 42.0171V29.0194H72.5323C73.0865 29.0194 76.9628 28.6748 76.9628 32.8635C76.9628 35.2946 75.3854 36.6909 72.9992 36.6909L72.4282 36.6563V42.0171H69.8465ZM72.425 34.5708C73.6712 34.6222 74.3811 34.1571 74.3811 32.8289C74.3811 31.8988 74.0172 31.1405 72.9088 31.1405H72.424L72.425 34.5708ZM83.242 29.0194V31.4285H80.6319V34.2566H82.9329V36.671H80.6319V39.6038H83.2799V42.0129H78.0533V29.0194H83.242ZM87.1762 29.0194L90.3994 36.8637L90.4341 36.8291C90.2846 36.1846 90.214 35.5245 90.2238 34.8631V29.0194H92.8024V42.0171H90.3636L87.1793 34.1739L87.1446 34.2084L87.2666 35.5188L87.2834 36.053V42.0171H84.7049V29.0194H87.1762ZM61.6753 43.738L62.7827 49.9441C62.9394 50.8575 62.973 51.7887 63.0603 52.702H63.095C63.216 51.7887 63.2854 50.8575 63.4757 49.9441L64.7734 43.738H66.8157L68.4772 52.702H68.5119C68.5982 51.7887 68.6171 50.8921 68.7717 49.9787L69.7928 43.738H72.4923L69.7928 56.7357H67.5602L66.2278 49.875C66.1405 49.0821 65.9849 48.2892 65.864 47.4963H65.8292C65.6904 48.2892 65.6042 49.0821 65.4086 49.875L63.9206 56.7357H61.6701L59.041 43.738H61.6753ZM78.6401 43.738V46.1472H76.0269V48.9753H78.3289V51.3844H76.0269V54.3172H78.6748V56.7263H73.4483V43.738H78.6401ZM65.1888 61.3874C64.6693 60.9391 64.032 60.56 63.3201 60.56C62.524 60.56 62.0213 61.0428 62.0213 61.8357C62.0213 63.9725 65.9502 64.094 65.9502 67.6103C65.9502 69.9147 64.6178 71.6618 62.1948 71.6618C61.4682 71.6618 60.568 71.4376 59.9791 71.0061V68.5582C60.5848 68.9772 61.1737 69.2485 61.9351 69.2485C62.7659 69.2485 63.4231 68.6965 63.4231 67.8344C63.4231 66.8341 62.6271 66.455 61.9004 65.9386C60.4123 64.9383 59.4943 63.9725 59.4943 62.0767C59.4943 60.0258 60.6889 58.2493 62.9047 58.2493C63.7102 58.2505 64.5001 58.4711 65.1888 58.8872V61.3874ZM73.0413 58.4546V60.8637H70.999V71.4429H68.4205V60.8637H66.395V58.4546H73.0413ZM78.3236 58.4546L81.4606 71.4544H78.7043L78.2195 69.2652H75.6062L75.1382 71.4544H72.5765L75.6062 58.4567L78.3236 58.4546ZM77.1805 63.7662L76.886 61.7991H76.8524L76.5747 63.7641L76.0216 67.229H77.8388L77.1805 63.7662ZM84.8963 58.4567L88.1153 66.3031L88.15 66.2685C88.0004 65.6244 87.9298 64.9646 87.9397 64.3035V58.4567H90.5182V71.4544H88.0858L84.8963 63.6112L84.8616 63.6457L84.9835 64.9561L85.0004 65.4903V71.4544H82.4218V58.4567H84.8963ZM92.2576 71.4544V58.4567H94.2136C94.6637 58.4567 100.064 57.802 100.064 65.0556C100.064 68.7625 98.6273 71.4513 94.5596 71.4513L92.2576 71.4544ZM97.4863 65.0461C97.4863 63.3912 96.9668 60.7705 94.8383 60.7705V69.15C96.9195 69.2485 97.4863 66.6624 97.4863 65.0461Z" fill="white"/>
</svg>
