<svg width="42" height="60" viewBox="0 0 42 60" fill="none" xmlns="http://www.w3.org/2000/svg">
<path d="M12.7129 42.0591L6.05532 35.3918C-2.01859 27.3062 -2.01859 14.1495 6.05532 6.0639C14.1292 -2.02171 27.2686 -2.02171 35.3417 6.0639C37.265 7.98935 38.7908 10.2754 39.8317 12.7915C40.8727 15.3076 41.4084 18.0044 41.4084 20.7279C41.4084 23.4514 40.8727 26.1482 39.8317 28.6642C38.7908 31.1803 37.265 33.4664 35.3417 35.3918L28.6866 42.0591L38.261 51.6456C38.4873 51.8724 38.6145 52.1798 38.6145 52.5004C38.6145 52.821 38.4873 53.1285 38.261 53.3552L35.1092 56.5115C35.1064 56.5156 35.1033 56.5195 35.1001 56.5232L31.9816 59.6436C31.7551 59.8701 31.4481 59.9973 31.1281 59.9973C30.808 59.9973 30.501 59.8701 30.2745 59.6436L20.6985 50.0604L11.1233 59.6461C10.8966 59.8727 10.5895 59.9999 10.2693 59.9999C9.94911 59.9999 9.64199 59.8727 9.41535 59.6461L6.30526 56.5299H6.29943V56.524L3.14185 53.3619C2.9155 53.1352 2.78835 52.8277 2.78835 52.5071C2.78835 52.1865 2.9155 51.879 3.14185 51.6523L12.7129 42.0591ZM19.8462 36.6275L12.3322 29.1042C11.2316 28.0057 10.3588 26.7001 9.76418 25.2624C9.16951 23.8248 8.86465 22.2836 8.86715 20.7274C8.86715 14.1954 14.1734 8.8798 20.6977 8.8798C23.0369 8.88043 25.3235 9.57557 27.2684 10.8773C29.2133 12.1791 30.7292 14.0291 31.6244 16.1934C32.5196 18.3578 32.754 20.7393 32.298 23.0371C31.842 25.3348 30.716 27.4456 29.0623 29.1026L22.4047 35.7698L23.8494 37.2174L30.5037 30.5426C35.9099 25.1328 35.9099 16.323 30.5061 10.9089C29.2186 9.61886 27.6898 8.59549 26.0072 7.89728C24.3246 7.19907 22.5211 6.8397 20.6997 6.8397C18.8784 6.8397 17.0749 7.19907 15.3923 7.89728C13.7097 8.59549 12.1809 9.61886 10.8933 10.9089C5.48712 16.323 5.48712 25.1328 10.8933 30.5476L34.2436 53.9584L35.7007 52.5025L19.8462 36.6275ZM20.7002 34.0627L27.3577 27.3955C28.6768 26.0765 29.5754 24.3952 29.9401 22.5645C30.3047 20.7338 30.1189 18.836 29.4062 17.1111C28.6934 15.3862 27.4858 13.9118 25.9361 12.8744C24.3864 11.837 22.5642 11.2833 20.7002 11.2833C18.8361 11.2833 17.0139 11.837 15.4642 12.8744C13.9145 13.9118 12.7069 15.3862 11.9942 17.1111C11.2814 18.836 11.0956 20.7338 11.4603 22.5645C11.8249 24.3952 12.7236 26.0765 14.0426 27.3955L20.7002 34.0627ZM31.1285 57.0822L32.5448 55.6688L9.19041 32.2572C2.84275 25.8995 2.84275 15.5562 9.19041 9.19935C10.7021 7.68472 12.497 6.4832 14.4725 5.66345C16.4481 4.84369 18.5655 4.42176 20.7039 4.42176C22.8423 4.42176 24.9598 4.84369 26.9353 5.66345C28.9108 6.4832 30.7057 7.68472 32.2174 9.19935C38.5651 15.5562 38.5651 25.8995 32.2174 32.2564L25.5623 38.9311L26.9828 40.3495L33.6346 33.6823C35.3337 31.9813 36.6815 29.9617 37.6011 27.739C38.5207 25.5162 38.994 23.1338 38.994 20.7279C38.994 18.3219 38.5207 15.9395 37.6011 13.7167C36.6815 11.494 35.3337 9.47445 33.6346 7.77346C26.5029 0.6315 14.8965 0.6315 7.76241 7.77346C0.628281 14.9154 0.629948 26.5395 7.76241 33.6823L21.5508 47.4906L31.1285 57.0822ZM10.2693 57.0822L18.9914 48.3467L17.5751 46.9283L8.85965 55.6697L10.2693 57.0822ZM7.15256 53.9609L15.8705 45.2212L14.42 43.7686L5.69874 52.5033L7.15256 53.9609Z" fill="white"/>
</svg>
