<svg xmlns="http://www.w3.org/2000/svg" width="20" height="20" viewBox="0 0 20 20"><defs><style>.a{fill:#767676;}</style></defs><title>img-logo-tld-bar-gray_co</title><path class="a" d="M14.9954,13.0087a1.9222,1.9222,0,1,0,1.9229,1.9219A1.922,1.922,0,0,0,14.9954,13.0087Z"/><path class="a" d="M19.806,3.57C19.1247,2.8883,16.869.6324,16.6082.3718A1.0074,1.0074,0,0,0,15.69,0H1.1768A1.1765,1.1765,0,0,0,0,1.1762V18.8238A1.1763,1.1763,0,0,0,1.1768,20H18.8236A1.1764,1.1764,0,0,0,20,18.8238V4.046A.5585.5585,0,0,0,19.806,3.57ZM2.1477,18.2429a.8571.8571,0,1,1,.8573-.857A.8571.8571,0,0,1,2.1477,18.2429Zm5.0435-1.39a1.914,1.914,0,0,0,1.5911-.8345,1.3865,1.3865,0,0,1,.3031-.2994,2.8877,2.8877,0,0,1,1.7759-.2476,3.7137,3.7137,0,1,1,0-1.0818,2.9,2.9,0,0,1-1.7759-.2473,1.382,1.382,0,0,1-.3031-.2994,1.9244,1.9244,0,1,0-1.5911,3.01Zm7.8042,1.7913a3.7137,3.7137,0,1,1,3.7137-3.7138A3.7146,3.7146,0,0,1,14.9954,18.6444Z"/></svg>