<svg width="168" height="21" viewBox="0 0 168 21" fill="none" xmlns="http://www.w3.org/2000/svg">
<path d="M29.0725 10.1855C29.0725 13.3349 26.3997 15.854 23.0696 15.854C19.7395 15.854 17.0665 13.3349 17.0665 10.1855C17.0665 7.01486 19.7395 4.45217 23.0696 4.45217C26.3997 4.45217 29.0725 7.01486 29.0725 10.1855ZM25.2604 10.1639C25.2599 9.73074 25.1309 9.30745 24.8898 8.94755C24.6488 8.58764 24.3064 8.30728 23.9061 8.1419C23.5057 7.97652 23.0653 7.93353 22.6405 8.01838C22.2157 8.10323 21.8256 8.3121 21.5195 8.6186C21.2134 8.92509 21.0051 9.31546 20.9207 9.74035C20.8364 10.1652 20.88 10.6056 21.0459 11.0057C21.2118 11.4059 21.4926 11.7479 21.8528 11.9885C22.213 12.2291 22.6365 12.3575 23.0696 12.3575C23.6506 12.3559 24.2074 12.1241 24.6179 11.713C25.0285 11.3019 25.2595 10.7449 25.2604 10.1639ZM45.1435 7.88354C45.1435 12.4226 41.9448 15.5284 37.4319 15.5284H30.9033C30.8315 15.5294 30.7602 15.5161 30.6936 15.4893C30.627 15.4624 30.5664 15.4226 30.5154 15.372C30.4643 15.3215 30.4239 15.2612 30.3965 15.1949C30.369 15.1285 30.355 15.0574 30.3554 14.9855V0.846944C30.3593 0.705275 30.4191 0.5709 30.5218 0.473217C30.6244 0.375534 30.7616 0.322496 30.9033 0.325706H37.4319C41.9448 0.325706 45.1435 3.34451 45.1435 7.88354ZM41.025 7.88354C41.025 5.75536 39.5351 3.90926 37.3443 3.90926H34.2988V11.9448H37.3443C39.5351 11.9448 41.025 10.012 41.025 7.88354ZM50.9491 4.45226C52.242 4.45226 53.2716 4.93 53.7316 5.60337V5.27749C53.7336 5.14488 53.7875 5.01834 53.8817 4.92496C53.9759 4.83158 54.1028 4.77878 54.2355 4.77786H56.9742C57.0403 4.77649 57.1061 4.78845 57.1676 4.81302C57.229 4.83759 57.2849 4.87428 57.3319 4.9209C57.3788 4.96751 57.416 5.02311 57.441 5.08437C57.4661 5.14563 57.4786 5.21131 57.4777 5.27749V15.0289C57.4786 15.0951 57.4661 15.1607 57.441 15.222C57.416 15.2832 57.3788 15.3388 57.3318 15.3854C57.2849 15.432 57.229 15.4686 57.1675 15.4932C57.1061 15.5177 57.0403 15.5297 56.9742 15.5283H54.2355C54.1693 15.5296 54.1035 15.5177 54.0421 15.4932C53.9806 15.4686 53.9247 15.432 53.8777 15.3854C53.8307 15.3388 53.7935 15.2832 53.7685 15.222C53.7434 15.1607 53.7308 15.0951 53.7316 15.0289V14.703C53.2716 15.3764 52.2201 15.8541 50.9273 15.8541C48.167 15.8541 45.5161 13.6606 45.5161 10.1205C45.5161 6.58045 48.1886 4.45226 50.9491 4.45226ZM51.519 12.3792C51.9581 12.3841 52.3888 12.2583 52.7564 12.0178C53.1239 11.7774 53.4116 11.4331 53.5831 11.0288C53.7545 10.6244 53.8019 10.1782 53.7192 9.74687C53.6365 9.31553 53.4275 8.91851 53.1186 8.60623C52.8098 8.29396 52.4151 8.08052 51.9847 7.99305C51.5543 7.90558 51.1076 7.94801 50.7014 8.11496C50.2952 8.28191 49.9477 8.56584 49.7032 8.93068C49.4587 9.29552 49.3282 9.7248 49.3282 10.164C49.3257 10.4535 49.3806 10.7407 49.4895 11.0089C49.5985 11.2772 49.7593 11.5213 49.9629 11.7271C50.1665 11.933 50.4088 12.0966 50.6759 12.2085C50.9429 12.3204 51.2294 12.3784 51.519 12.3792ZM63.3276 4.45226C64.6639 4.45226 65.6938 4.95161 66.1538 5.53797V0.825191C66.1559 0.692601 66.2098 0.566088 66.3039 0.472716C66.3981 0.379343 66.5251 0.326526 66.6577 0.325563H69.4401C69.5063 0.324186 69.5721 0.336137 69.6336 0.360705C69.6951 0.385273 69.751 0.421957 69.798 0.468571C69.845 0.515186 69.8821 0.57078 69.9072 0.632045C69.9323 0.69331 69.9448 0.758995 69.944 0.825191V15.0289C69.9448 15.0951 69.9323 15.1607 69.9072 15.222C69.8821 15.2832 69.845 15.3388 69.7979 15.3854C69.7509 15.432 69.695 15.4687 69.6336 15.4932C69.5721 15.5177 69.5063 15.5297 69.4401 15.5282H66.7015C66.6353 15.5297 66.5695 15.5177 66.508 15.4932C66.4466 15.4687 66.3907 15.432 66.3437 15.3854C66.2966 15.3388 66.2595 15.2832 66.2344 15.222C66.2093 15.1607 66.1968 15.0951 66.1976 15.0289V14.703C65.65 15.3764 64.6858 15.8541 63.3933 15.8541C60.633 15.8541 57.9821 13.6605 57.9821 10.1205C57.9821 6.58045 60.6111 4.45226 63.3276 4.45226ZM63.985 12.3792C64.4241 12.3841 64.8548 12.2583 65.2224 12.0178C65.5899 11.7774 65.8776 11.4331 66.0491 11.0288C66.2205 10.6244 66.2679 10.1782 66.1852 9.74687C66.1025 9.31553 65.8935 8.91851 65.5846 8.60623C65.2758 8.29396 64.8811 8.08052 64.4507 7.99305C64.0203 7.90558 63.5736 7.94801 63.1674 8.11496C62.7612 8.28191 62.4137 8.56584 62.1692 8.93068C61.9247 9.29552 61.7942 9.7248 61.7942 10.164C61.7917 10.4535 61.8466 10.7407 61.9555 11.0089C62.0644 11.2772 62.2253 11.5213 62.4289 11.7271C62.6325 11.933 62.8748 12.0966 63.1419 12.2085C63.4089 12.3204 63.6954 12.3784 63.985 12.3792ZM75.7935 4.45226C77.1299 4.45226 78.1597 4.95161 78.6197 5.53797V0.825191C78.6218 0.692602 78.6757 0.566088 78.7699 0.472716C78.864 0.379343 78.991 0.326526 79.1236 0.325563H81.9061C81.9722 0.32421 82.038 0.336178 82.0995 0.360754C82.1609 0.38533 82.2168 0.422014 82.2638 0.468624C82.3108 0.515234 82.348 0.570818 82.3731 0.632072C82.3982 0.693327 82.4107 0.759002 82.4099 0.825191V15.0289C82.4107 15.0951 82.3982 15.1607 82.3731 15.222C82.348 15.2832 82.3108 15.3388 82.2638 15.3854C82.2168 15.4319 82.1609 15.4686 82.0994 15.4931C82.038 15.5177 81.9722 15.5296 81.9061 15.5282H79.1674C79.1012 15.5297 79.0354 15.5177 78.9739 15.4932C78.9125 15.4687 78.8566 15.432 78.8096 15.3854C78.7626 15.3388 78.7254 15.2832 78.7003 15.222C78.6752 15.1608 78.6627 15.0951 78.6635 15.0289V14.703C78.1159 15.3764 77.1517 15.8541 75.8592 15.8541C73.0989 15.8541 70.448 13.6605 70.448 10.1205C70.448 6.58045 73.077 4.45226 75.7935 4.45226ZM76.4509 12.3792C76.89 12.3841 77.3207 12.2583 77.6883 12.0178C78.0558 11.7774 78.3436 11.4331 78.515 11.0288C78.6864 10.6244 78.7338 10.1782 78.6511 9.74687C78.5684 9.31553 78.3594 8.91851 78.0505 8.60623C77.7417 8.29396 77.347 8.08052 76.9166 7.99305C76.4862 7.90558 76.0396 7.94801 75.6333 8.11496C75.2271 8.28191 74.8797 8.56584 74.6351 8.93068C74.3906 9.29552 74.2601 9.7248 74.2601 10.164C74.2577 10.4535 74.3125 10.7407 74.4214 11.0089C74.5304 11.2772 74.6913 11.5213 74.8949 11.7271C75.0984 11.933 75.3407 12.0966 75.6078 12.2085C75.8748 12.3204 76.1613 12.3784 76.4509 12.3792ZM91.5676 17.092C90.8887 19.3723 89.2893 20.6539 86.7917 20.6539C85.4335 20.6539 84.1187 20.1978 83.2643 19.4593C83.1362 19.3405 83.0579 19.1775 83.0454 19.0032C83.058 18.8373 83.1189 18.6788 83.2205 18.5471L84.2504 16.9834C84.3009 16.9133 84.3665 16.8555 84.4423 16.8141C84.5181 16.7728 84.6022 16.749 84.6885 16.7445C84.9293 16.7445 85.0391 16.8096 85.258 16.9618C85.5867 17.179 86.0249 17.4395 86.5287 17.4395C86.945 17.4395 87.5145 17.2657 87.7118 16.6143L88.0624 15.5283H86.3973C86.2453 15.5271 86.0981 15.4751 85.979 15.3807C85.8599 15.2863 85.7758 15.1548 85.74 15.007L82.9578 5.625C82.9096 5.47722 82.8801 5.32399 82.8699 5.16888C82.8699 4.95163 83.0235 4.77789 83.33 4.77789H86.6163C86.9012 4.77789 87.0763 5.03837 87.1423 5.29913L88.9603 12.0317H89.092L90.56 5.29913C90.6256 5.03837 90.8008 4.77789 91.0857 4.77789H94.4158C94.7223 4.77789 94.8758 4.95163 94.8758 5.16888C94.8657 5.32396 94.8362 5.47718 94.7883 5.625L91.5676 17.092ZM13.1669 13.4217C11.8524 15.2459 9.66132 15.8542 7.73355 15.8542C3.28631 15.8542 0 12.5314 0 7.92694C0 3.51844 3.54904 0 8.1936 0C11.6332 0 14.3937 1.45509 15.6425 4.23504C15.7958 4.56064 15.9053 5.08216 14.9852 5.25562L12.5533 5.69013C12.3665 5.72819 12.1726 5.70917 11.9968 5.63553C11.821 5.56189 11.6714 5.43705 11.5675 5.27724C11.1892 4.76196 10.6941 4.34371 10.1228 4.05681C9.55155 3.76991 8.92042 3.62254 8.28118 3.62679C5.84957 3.62679 4.11884 5.47288 4.11884 7.94855C4.11884 10.6853 6.09039 12.2706 8.2155 12.2706C9.63971 12.2706 10.8225 11.7278 11.5894 10.7288H9.44239C9.37057 10.7298 9.29928 10.7164 9.23268 10.6896C9.16609 10.6627 9.10552 10.6228 9.05453 10.5722C9.00353 10.5216 8.96314 10.4614 8.93571 10.395C8.90828 10.3286 8.89436 10.2575 8.89476 10.1856V8.14419C8.89436 8.07239 8.90829 8.00123 8.93573 7.93487C8.96316 7.86852 9.00356 7.8083 9.05456 7.75775C9.10555 7.7072 9.16612 7.66733 9.23271 7.64047C9.29931 7.61361 9.37059 7.60031 9.44239 7.60134H15.9928C16.0646 7.60031 16.1359 7.6136 16.2026 7.64045C16.2692 7.6673 16.3298 7.70717 16.3808 7.75772C16.4318 7.80827 16.4722 7.86848 16.4997 7.93484C16.5272 8.0012 16.5411 8.07238 16.5407 8.14419V14.9854C16.5411 15.0572 16.5272 15.1284 16.4997 15.1948C16.4722 15.2611 16.4318 15.3214 16.3808 15.3719C16.3298 15.4225 16.2692 15.4623 16.2026 15.4892C16.1359 15.516 16.0646 15.5293 15.9928 15.5283H13.7145C13.6427 15.5293 13.5714 15.516 13.5048 15.4891C13.4383 15.4622 13.3777 15.4224 13.3267 15.3718C13.2757 15.3213 13.2353 15.2611 13.2079 15.1947C13.1804 15.1284 13.1665 15.0572 13.1669 14.9854L13.1669 13.4217ZM95.2391 3.62749C95.1265 3.5181 95.0375 3.38684 94.9775 3.24179C94.8559 2.94476 94.8559 2.61184 94.9775 2.31481C95.0383 2.17036 95.1271 2.03938 95.2388 1.92945C95.3505 1.81952 95.4828 1.73282 95.6282 1.67435C95.7762 1.61516 95.9342 1.58506 96.0936 1.5857C96.2526 1.58501 96.4102 1.61534 96.5576 1.67499C96.7025 1.73314 96.8343 1.81953 96.9455 1.92911C97.0578 2.03914 97.1465 2.17084 97.2063 2.31621C97.3269 2.61247 97.3269 2.94413 97.2063 3.24039C97.1465 3.38576 97.0578 3.51746 96.9455 3.62749C96.8343 3.73707 96.7025 3.82346 96.5576 3.88161C96.4102 3.94126 96.2526 3.97158 96.0936 3.97089C95.9342 3.97152 95.7762 3.94147 95.6282 3.88238C95.4826 3.82462 95.3502 3.73791 95.2391 3.62749ZM96.0936 3.7602C96.2216 3.76307 96.3488 3.73934 96.4671 3.6905C96.5855 3.64166 96.6924 3.56879 96.7811 3.47648C96.9599 3.28757 97.0595 3.03737 97.0595 2.77728C97.0595 2.5172 96.9599 2.26699 96.7811 2.07808C96.5979 1.89595 96.35 1.79373 96.0917 1.79373C95.8333 1.79373 95.5854 1.89595 95.4022 2.07808C95.2225 2.26668 95.1223 2.51718 95.1223 2.77766C95.1223 3.03815 95.2225 3.28865 95.4022 3.47724C95.4917 3.56947 95.5994 3.6422 95.7183 3.69089C95.8373 3.73958 95.9651 3.76318 96.0936 3.7602ZM95.8414 3.48931H95.6054C95.593 3.48906 95.5812 3.48403 95.5724 3.47527C95.5637 3.46651 95.5586 3.4547 95.5584 3.44232V2.11694C95.5585 2.11095 95.5599 2.10504 95.5624 2.09962C95.5649 2.09419 95.5686 2.08936 95.5731 2.08544C95.5773 2.08109 95.5823 2.0776 95.5879 2.07518C95.5934 2.07276 95.5994 2.07146 95.6054 2.07134H96.1271C96.2705 2.0644 96.4113 2.11154 96.5216 2.20342C96.5699 2.24537 96.6083 2.29752 96.6341 2.35612C96.6598 2.41471 96.6722 2.47829 96.6704 2.54226C96.6707 2.62628 96.646 2.70849 96.5993 2.77836C96.5512 2.85147 96.4839 2.90991 96.4047 2.94726L96.7052 3.41412C96.7111 3.42069 96.7149 3.42886 96.7161 3.43758C96.7173 3.44631 96.7159 3.45521 96.7121 3.46314C96.7076 3.47064 96.701 3.47671 96.6932 3.48063C96.6854 3.48454 96.6766 3.48614 96.6679 3.48524H96.4329C96.4154 3.48571 96.398 3.48155 96.3826 3.47317C96.3661 3.46241 96.3522 3.4482 96.3417 3.43152L96.076 3.00899H95.8883V3.44231C95.8881 3.4547 95.8831 3.46651 95.8743 3.47527C95.8656 3.48403 95.8537 3.48906 95.8414 3.48931ZM96.327 2.53947C96.3282 2.51379 96.3238 2.48815 96.3139 2.4644C96.3041 2.44064 96.2891 2.41935 96.2701 2.40206C96.2269 2.36679 96.1721 2.34886 96.1164 2.35177H95.8883V2.72997H96.1164C96.1723 2.73103 96.2267 2.71171 96.2693 2.67562C96.2884 2.65854 96.3034 2.6375 96.3133 2.61397C96.3233 2.59044 96.328 2.56501 96.327 2.53947Z" fill="white"/>
<path d="M151.641 4.47794C150.051 4.47794 148.734 5.02624 147.692 6.12284C146.649 7.21961 146.128 8.57096 146.128 10.1769C146.128 11.7985 146.653 13.146 147.703 14.2194C148.754 15.2931 150.089 15.8298 151.711 15.8295C152.654 15.8458 153.589 15.6477 154.445 15.2502C155.209 14.8967 155.865 14.3447 156.344 13.6517C156.468 13.4512 156.437 13.289 156.252 13.1653L155.58 12.7484C155.379 12.6094 155.194 12.6403 155.024 12.841C154.097 13.8914 153.008 14.4164 151.757 14.4162C151.248 14.4296 150.742 14.34 150.268 14.153C149.794 13.9659 149.363 13.6851 149 13.3275C148.26 12.6043 147.822 11.6275 147.773 10.5938H156.668C156.915 10.5938 157.039 10.4625 157.039 10.2V9.89883C157.039 8.30836 156.526 7.0072 155.499 5.99535C154.472 4.9839 153.186 4.47809 151.641 4.47794ZM147.819 9.41243C147.913 8.43841 148.353 7.53027 149.058 6.85245C149.401 6.52196 149.806 6.26271 150.249 6.08974C150.692 5.91676 151.166 5.8335 151.641 5.84477C152.676 5.84477 153.545 6.16526 154.248 6.80626C154.95 7.44726 155.356 8.31598 155.464 9.41243H147.819ZM130.468 4.77911H129.634C129.53 4.77949 129.43 4.82109 129.356 4.89485C129.282 4.96862 129.24 5.06856 129.24 5.1729V15.1345C129.24 15.2388 129.282 15.3387 129.356 15.4124C129.43 15.4862 129.53 15.5278 129.634 15.5283H130.468C130.518 15.5297 130.568 15.5201 130.614 15.5001C130.66 15.48 130.701 15.4501 130.734 15.4123C130.803 15.3366 130.841 15.2371 130.839 15.1345V5.1729C130.841 5.07023 130.803 4.97072 130.734 4.89482C130.701 4.85721 130.66 4.82735 130.614 4.80735C130.568 4.78736 130.518 4.77772 130.468 4.77911V4.77911ZM113.302 4.77911H112.468C112.364 4.77949 112.264 4.82109 112.19 4.89485C112.116 4.96862 112.074 5.06856 112.074 5.1729V6.8409C111.721 6.13129 111.164 5.54268 110.476 5.1498C109.732 4.71272 108.883 4.4883 108.02 4.50102C107.306 4.48671 106.597 4.62031 105.937 4.89342C105.277 5.16653 104.681 5.57324 104.186 6.08796C103.143 7.14608 102.622 8.49358 102.622 10.1305C102.622 11.7676 103.143 13.1151 104.186 14.173C105.228 15.2311 106.514 15.7601 108.043 15.7599C108.897 15.7709 109.737 15.5508 110.476 15.1229C111.161 14.741 111.717 14.1646 112.074 13.4665V15.5978C112.074 16.7099 111.742 17.5979 111.078 18.2619C110.414 18.9258 109.449 19.2578 108.182 19.2581C107.147 19.2581 106.317 19.0264 105.692 18.5631C105.098 18.1463 104.675 17.5294 104.499 16.8256C104.452 16.609 104.298 16.5241 104.036 16.5708L103.201 16.8025C102.97 16.8331 102.885 16.9644 102.946 17.1963C103.19 18.2101 103.806 19.0951 104.672 19.675C105.576 20.3082 106.73 20.6248 108.136 20.6249C109.881 20.6249 111.24 20.1616 112.213 19.235C113.186 18.3081 113.673 17.1034 113.673 15.6209V5.1729C113.675 5.07033 113.637 4.97089 113.569 4.89482C113.535 4.85723 113.494 4.8274 113.448 4.80741C113.402 4.78742 113.352 4.77776 113.302 4.77911V4.77911ZM110.974 13.1189C110.24 13.9223 109.302 14.3238 108.159 14.3236C107.633 14.3369 107.109 14.2361 106.626 14.0281C106.142 13.8202 105.708 13.51 105.356 13.1189C104.614 12.3162 104.244 11.3201 104.244 10.1305C104.244 8.9569 104.614 7.96846 105.356 7.16517C105.709 6.77413 106.142 6.46401 106.626 6.25607C107.11 6.04813 107.633 5.9473 108.159 5.96048C109.302 5.96048 110.24 6.35819 110.974 7.15362C111.707 7.94921 112.074 8.9415 112.074 10.1305C112.074 11.3199 111.707 12.316 110.974 13.1189V13.1189ZM126.02 4.77911H125.209C125.105 4.7794 125.005 4.82099 124.931 4.89478C124.857 4.96858 124.816 5.06857 124.816 5.1729V10.895C124.816 11.9455 124.499 12.7989 123.865 13.4549C123.232 14.1115 122.383 14.4397 121.317 14.4395C120.236 14.4395 119.406 14.1267 118.827 13.5011C118.248 12.8757 117.958 12.007 117.958 10.895V5.1729C117.958 5.06856 117.916 4.96862 117.842 4.89485C117.769 4.82109 117.669 4.77949 117.564 4.77911H116.731C116.682 4.78005 116.635 4.79079 116.591 4.81069C116.547 4.83058 116.508 4.85921 116.476 4.89482C116.438 4.93081 116.409 4.97405 116.389 5.02187C116.369 5.0697 116.359 5.12109 116.36 5.1729V11.173C116.36 12.5785 116.769 13.7059 117.587 14.5552C118.406 15.4048 119.518 15.8295 120.923 15.8295C121.757 15.8488 122.581 15.6449 123.31 15.2387C123.961 14.8745 124.486 14.3211 124.816 13.6517V15.1576C124.814 15.2078 124.824 15.2577 124.844 15.3037C124.864 15.3498 124.893 15.3909 124.931 15.4241C125.007 15.4931 125.107 15.5304 125.209 15.5283H126.02C126.125 15.5277 126.224 15.486 126.298 15.4123C126.372 15.3385 126.413 15.2387 126.414 15.1345V5.1729C126.413 5.06864 126.372 4.96877 126.298 4.89502C126.224 4.82127 126.125 4.77961 126.02 4.77911V4.77911ZM143.626 0.3258H142.792C142.688 0.326286 142.588 0.367924 142.514 0.441662C142.44 0.5154 142.399 0.615278 142.398 0.719589V6.81781C142.046 6.11005 141.489 5.52475 140.8 5.13826C140.054 4.70824 139.205 4.48806 138.344 4.50103C137.63 4.48967 136.922 4.62693 136.264 4.90411C135.606 5.18128 135.013 5.59231 134.522 6.11106C133.471 7.18473 132.946 8.54001 132.946 10.1769C132.946 11.814 133.472 13.1654 134.522 14.231C135.018 14.7484 135.616 15.1575 136.277 15.4326C136.939 15.7077 137.651 15.8428 138.368 15.8295C139.219 15.8413 140.057 15.6167 140.788 15.1807C141.475 14.7816 142.033 14.195 142.398 13.4896V15.1345C142.399 15.2388 142.44 15.3387 142.514 15.4124C142.588 15.4862 142.688 15.5278 142.792 15.5283H143.626C143.676 15.5297 143.726 15.52 143.772 15.5C143.818 15.48 143.86 15.45 143.893 15.4123C143.962 15.3364 143.999 15.237 143.997 15.1345V0.719589C143.999 0.617091 143.962 0.517721 143.893 0.441744C143.859 0.404128 143.818 0.374258 143.772 0.354228C143.726 0.334199 143.676 0.324495 143.626 0.3258V0.3258ZM141.321 13.1538C140.587 13.9494 139.649 14.347 138.507 14.3467C137.363 14.3467 136.425 13.949 135.692 13.1538C134.958 12.3584 134.591 11.3661 134.591 10.1769C134.591 8.98777 134.958 7.98771 135.692 7.17672C136.425 6.36605 137.363 5.96063 138.507 5.96048C139.649 5.96048 140.587 6.36589 141.321 7.17672C142.055 7.98763 142.421 8.98769 142.421 10.1769C142.421 11.3663 142.055 12.3586 141.321 13.1538V13.1538ZM130.051 0.3258C129.879 0.324024 129.709 0.358141 129.552 0.425958C129.394 0.493774 129.252 0.593793 129.136 0.719589C128.891 0.965836 128.754 1.29896 128.754 1.6462C128.754 1.99344 128.891 2.32657 129.136 2.57282C129.254 2.69721 129.395 2.79628 129.553 2.86398C129.71 2.93169 129.88 2.96661 130.051 2.96661C130.222 2.96661 130.392 2.93169 130.549 2.86398C130.706 2.79628 130.848 2.69721 130.966 2.57282C131.211 2.32657 131.348 1.99344 131.348 1.6462C131.348 1.29897 131.211 0.965838 130.966 0.719589C130.849 0.593783 130.707 0.493763 130.55 0.425948C130.392 0.358133 130.222 0.32402 130.051 0.3258V0.3258ZM166.282 10.5358C165.757 10.0494 164.947 9.69813 163.85 9.48195L161.835 9.08793C160.63 8.84119 160.028 8.32383 160.028 7.53587C160.028 7.04169 160.248 6.62857 160.688 6.29653C161.128 5.96448 161.726 5.79842 162.483 5.79834C163.565 5.79364 164.618 6.15267 165.472 6.81781C165.561 6.90679 165.682 6.95676 165.808 6.95676C165.933 6.95676 166.054 6.90679 166.143 6.81781L166.537 6.42402C166.753 6.22347 166.746 6.02269 166.514 5.82167C165.556 4.92616 164.251 4.47825 162.599 4.47794C161.394 4.47794 160.39 4.76748 159.587 5.34658C158.784 5.92583 158.383 6.67877 158.383 7.60538C158.383 9.16546 159.371 10.123 161.348 10.4781L163.225 10.8254C164.692 11.1035 165.425 11.7136 165.425 12.6556C165.425 13.15 165.186 13.5824 164.707 13.9529C164.228 14.3236 163.572 14.509 162.738 14.5091C161.486 14.5151 160.281 14.0331 159.379 13.1653C159.132 12.9492 158.915 12.926 158.73 13.0958L158.336 13.4434C158.058 13.6906 158.089 13.9763 158.429 14.3005C159.51 15.3197 160.923 15.8294 162.668 15.8295C164.074 15.8295 165.159 15.4974 165.923 14.8333C166.688 14.1695 167.07 13.405 167.07 12.5399C167.07 11.6906 166.807 11.0225 166.282 10.5358V10.5358Z" fill="white"/>
</svg>
