<svg xmlns="http://www.w3.org/2000/svg" width="20" height="20" viewBox="0 0 20 20"><defs><style>.a{fill:#767676;}</style></defs><title>img_icon_bug_tld-me</title><path class="a" d="M15.887,7.1019a1.2459,1.2459,0,0,0-.5608.1241,1.39,1.39,0,0,0-.7188.9752q-.2268.8209.1052.8517a2.1977,2.1977,0,0,0,1.9421-.9754.7239.7239,0,0,0,.13-.2479.4491.4491,0,0,0-.1952-.5265A1.1892,1.1892,0,0,0,15.887,7.1019Z"/><path class="a" d="M10,0A10,10,0,1,0,20,10,10,10,0,0,0,10,0ZM2.4192,13.7625a.7574.7574,0,0,1,.012-1.5122.7574.7574,0,0,1-.012,1.5122ZM12.67,9.7369a25.5185,25.5185,0,0,0-.3048,4.3507.7614.7614,0,0,1-.0233.1391q-.1329.48-.8679.62-.6695.1238-.7587,0a9.259,9.259,0,0,1,.111-3.3137,12.6789,12.6789,0,0,0,.2193-3.3133A10.9236,10.9236,0,0,0,9.9517,9.7676a17.9978,17.9978,0,0,1-1.0645,1.61.6075.6075,0,0,0-.0729.2636.6178.6178,0,0,1-.0728.2629,1.4728,1.4728,0,0,1-1.144.6659.74.74,0,0,1-.308-.0619.5993.5993,0,0,1-.3454-.2635.4956.4956,0,0,1-.07-.4179q.2981-1.7493-.275-1.7495-.1241,0-.1967.263-.0214.0777-.0528.2478c-.0213.1138-.039.1962-.0533.2479a2.8949,2.8949,0,0,1-.2143.4953,2.9131,2.9131,0,0,0-.2186.511q-.0428.1551-.1137.4955t-.1139.4953a2.6486,2.6486,0,0,1-.0925.2789.8053.8053,0,0,1-.4528.4337,1.7354,1.7354,0,0,1-.7163.1546.6612.6612,0,0,1-.59-.2165,1.1153,1.1153,0,0,1-.0905-.96,6.0335,6.0335,0,0,1,.5986-1.27q.5484-.9753.6848-1.3006Q5.52,8.4362,6.6951,5.4167a.8249.8249,0,0,1,.86-.48q.4647,0,.5469.2631a4.2913,4.2913,0,0,1,.3025,1.8736q-.004,1.0219-.0232,2.0438.19.2634.23.2321A11.6527,11.6527,0,0,0,9.8045,7.7238a11.5841,11.5841,0,0,1,1.1928-1.6257,2.0811,2.0811,0,0,1,1.49-.7433,1.9115,1.9115,0,0,1,.4628.0619A23.94,23.94,0,0,1,12.67,9.7369Zm3.978-.2349q-1.48.7587-1.6575.8978c-.1987.0829-.31.17-.3359.2634q-.0684.2479.2187.4412a.9886.9886,0,0,0,.55.1935,4.5406,4.5406,0,0,0,1.6082-.4953.544.544,0,0,1,.1311.5884,1.2,1.2,0,0,1-.3353.5418,1.0143,1.0143,0,0,1-.5615.2941,12.4075,12.4075,0,0,1-1.2968.1549,1.9629,1.9629,0,0,1-.8934-.1856q-1.6159-.8209-.8324-3.9331a3.3706,3.3706,0,0,1,1.105-1.7572,2.7514,2.7514,0,0,1,1.8208-.7046,1.935,1.935,0,0,1,1.6452.7975,2.0218,2.0218,0,0,1,.2816,1.8658A3.77,3.77,0,0,1,16.6479,9.502Z"/></svg>