<svg xmlns="http://www.w3.org/2000/svg" width="16.7159" height="20" viewBox="0 0 16.7159 20"><defs><style>.a{fill:#767676;}</style></defs><title>img_icon_bug_tld-us</title><path class="a" d="M2.788,13.343a1.394,1.394,0,1,1-1.3934-1.3942A1.3936,1.3936,0,0,1,2.788,13.343Z"/><path class="a" d="M16.29,10.5935a3.5553,3.5553,0,0,0-1.3064-1.1193l-1.3892-.7448a2.5592,2.5592,0,0,1-.816-.6015,1.0076,1.0076,0,0,1-.1942-.6311.8379.8379,0,0,1,.2659-.6782,1.2882,1.2882,0,0,1,.8588-.2493,1.2643,1.2643,0,0,1,.904.2589,1.3759,1.3759,0,0,1,.2551.9529V7.86h1.6664V7.7482a2.7812,2.7812,0,0,0-.7-2.059A2.8794,2.8794,0,0,0,13.7436,5a3.03,3.03,0,0,0-2.0967.6831A2.46,2.46,0,0,0,10.8753,7.6a2.67,2.67,0,0,0,.4171,1.4942,3.5057,3.5057,0,0,0,1.2825,1.0921l1.47.777a2.4767,2.4767,0,0,1,.7744.598.9992.9992,0,0,1,.2052.62,1.2938,1.2938,0,0,1-.3554.9882,1.4709,1.4709,0,0,1-1.0563.3446,1.0494,1.0494,0,0,1-.863-.3475,1.77,1.77,0,0,1-.3134-1.1492v-.0336H10.6577v.0763a2.954,2.954,0,0,0,.7626,2.19A3.03,3.03,0,0,0,13.6309,15a3.2579,3.2579,0,0,0,2.2626-.7353,2.7077,2.7077,0,0,0,.8224-2.1006A2.8277,2.8277,0,0,0,16.29,10.5935Z"/><path class="a" d="M8.0343,5.0459V10.957a2.97,2.97,0,0,1-.4426,1.819,1.3426,1.3426,0,0,1-.8139.484c-.0466.0042-.2205.0224-.4218.031-.2078-.0086-.3768-.0268-.4226-.031a1.3453,1.3453,0,0,1-.8121-.484,2.9718,2.9718,0,0,1-.4428-1.819V5.0459H2.8329V11.22l.0916.065a2.5425,2.5425,0,0,1,1.034,2.0577,2.6432,2.6432,0,0,1-.1.71l-.0406.1373.1075.0945a3.1316,3.1316,0,0,0,1.9421.7139h.0761L6.8324,15h.0035a3.0391,3.0391,0,0,0,2.1819-.9376A3.6279,3.6279,0,0,0,9.88,11.5161v-6.47Z"/></svg>